<mxfile modified="2021-02-01T09:01:06.490Z" host="app.diagrams.net" agent="5.0 (Windows NT 10.0; Win64; x64) AppleWebKit/537.36 (KHTML, like Gecko) Chrome/86.0.4240.111 Safari/537.36 Edg/86.0.622.58" etag="gO5efn9Fy3-rUZYtJI3L" version="14.2.9" type="github">
  <diagram id="Ht1M8jgEwFfnCIfOTk4-" name="Page-1">
    <mxGraphModel dx="1114" dy="937" grid="1" gridSize="10" guides="1" tooltips="1" connect="1" arrows="1" fold="1" page="1" pageScale="1" pageWidth="1169" pageHeight="827" math="0" shadow="0">
      <root>
        <mxCell id="0" />
        <mxCell id="1" parent="0" />
        <mxCell id="tC0NQ2HxVrwb5MHLZs-I-2" value="AWS Cloud" style="points=[[0,0],[0.25,0],[0.5,0],[0.75,0],[1,0],[1,0.25],[1,0.5],[1,0.75],[1,1],[0.75,1],[0.5,1],[0.25,1],[0,1],[0,0.75],[0,0.5],[0,0.25]];outlineConnect=0;gradientColor=none;html=1;whiteSpace=wrap;fontSize=12;fontStyle=0;shape=mxgraph.aws4.group;grIcon=mxgraph.aws4.group_aws_cloud_alt;strokeColor=#232F3E;fillColor=none;verticalAlign=top;align=left;spacingLeft=30;fontColor=#232F3E;dashed=0;" parent="1" vertex="1">
          <mxGeometry x="540" y="150" width="560" height="430" as="geometry" />
        </mxCell>
        <mxCell id="tC0NQ2HxVrwb5MHLZs-I-11" value="AWS Amplify" style="fillColor=none;strokeColor=#5A6C86;dashed=1;verticalAlign=top;fontStyle=0;fontColor=#5A6C86;" parent="1" vertex="1">
          <mxGeometry x="590" y="200" width="460" height="320" as="geometry" />
        </mxCell>
        <mxCell id="tC0NQ2HxVrwb5MHLZs-I-9" style="edgeStyle=orthogonalEdgeStyle;rounded=0;orthogonalLoop=1;jettySize=auto;html=1;fillColor=#ffe6cc;strokeColor=#d79b00;endArrow=open;endFill=0;strokeWidth=2;targetPerimeterSpacing=16;sourcePerimeterSpacing=16;" parent="1" source="tC0NQ2HxVrwb5MHLZs-I-1" target="tC0NQ2HxVrwb5MHLZs-I-3" edge="1">
          <mxGeometry relative="1" as="geometry" />
        </mxCell>
        <mxCell id="4MI_4Ikp9sUxNsY5L3-h-3" value="&amp;lt;&amp;lt;goto&amp;gt;&amp;gt;&lt;br&gt;Payment" style="edgeStyle=orthogonalEdgeStyle;rounded=0;orthogonalLoop=1;jettySize=auto;html=1;entryX=0;entryY=0.5;entryDx=0;entryDy=0;dashed=1;targetPerimeterSpacing=0;sourcePerimeterSpacing=20;" edge="1" parent="1" source="tC0NQ2HxVrwb5MHLZs-I-1" target="tC0NQ2HxVrwb5MHLZs-I-8">
          <mxGeometry relative="1" as="geometry">
            <Array as="points">
              <mxPoint x="320" y="600" />
              <mxPoint x="620" y="600" />
              <mxPoint x="620" y="694" />
            </Array>
          </mxGeometry>
        </mxCell>
        <mxCell id="tC0NQ2HxVrwb5MHLZs-I-1" value="users" style="outlineConnect=0;gradientColor=none;fontColor=#545B64;strokeColor=none;fillColor=#879196;dashed=0;verticalLabelPosition=bottom;verticalAlign=top;align=center;html=1;fontSize=12;fontStyle=0;aspect=fixed;shape=mxgraph.aws4.illustration_users;pointerEvents=1" parent="1" vertex="1">
          <mxGeometry x="270" y="220" width="100" height="100" as="geometry" />
        </mxCell>
        <mxCell id="tC0NQ2HxVrwb5MHLZs-I-27" style="edgeStyle=orthogonalEdgeStyle;rounded=0;jumpStyle=arc;orthogonalLoop=1;jettySize=auto;html=1;sourcePerimeterSpacing=20;endArrow=open;endFill=0;targetPerimeterSpacing=10;strokeColor=#d79b00;strokeWidth=2;fillColor=#ffe6cc;" parent="1" source="tC0NQ2HxVrwb5MHLZs-I-3" target="tC0NQ2HxVrwb5MHLZs-I-5" edge="1">
          <mxGeometry relative="1" as="geometry" />
        </mxCell>
        <mxCell id="4MI_4Ikp9sUxNsY5L3-h-4" value="&amp;lt;&amp;lt;builds&amp;gt;&amp;gt;&lt;br&gt;Gatsby" style="edgeStyle=orthogonalEdgeStyle;rounded=0;orthogonalLoop=1;jettySize=auto;html=1;dashed=1;endArrow=open;endFill=0;fillColor=#fff2cc;strokeColor=#d6b656;strokeWidth=2;targetPerimeterSpacing=16;sourcePerimeterSpacing=16;" edge="1" parent="1" source="tC0NQ2HxVrwb5MHLZs-I-3" target="4MI_4Ikp9sUxNsY5L3-h-1">
          <mxGeometry relative="1" as="geometry" />
        </mxCell>
        <mxCell id="tC0NQ2HxVrwb5MHLZs-I-3" value="AWS Amplify" style="points=[[0,0,0],[0.25,0,0],[0.5,0,0],[0.75,0,0],[1,0,0],[0,1,0],[0.25,1,0],[0.5,1,0],[0.75,1,0],[1,1,0],[0,0.25,0],[0,0.5,0],[0,0.75,0],[1,0.25,0],[1,0.5,0],[1,0.75,0]];outlineConnect=0;fontColor=#232F3E;gradientColor=#F54749;gradientDirection=north;fillColor=#C7131F;strokeColor=#ffffff;dashed=0;verticalLabelPosition=bottom;verticalAlign=top;align=center;html=1;fontSize=12;fontStyle=1;aspect=fixed;shape=mxgraph.aws4.resourceIcon;resIcon=mxgraph.aws4.amplify;" parent="1" vertex="1">
          <mxGeometry x="620" y="231" width="78" height="78" as="geometry" />
        </mxCell>
        <mxCell id="tC0NQ2HxVrwb5MHLZs-I-4" value="stripeCheckout" style="points=[[0,0,0],[0.25,0,0],[0.5,0,0],[0.75,0,0],[1,0,0],[0,1,0],[0.25,1,0],[0.5,1,0],[0.75,1,0],[1,1,0],[0,0.25,0],[0,0.5,0],[0,0.75,0],[1,0.25,0],[1,0.5,0],[1,0.75,0]];outlineConnect=0;fontColor=#232F3E;gradientColor=#F78E04;gradientDirection=north;fillColor=#D05C17;strokeColor=#ffffff;dashed=0;verticalLabelPosition=bottom;verticalAlign=top;align=center;html=1;fontSize=12;fontStyle=1;aspect=fixed;shape=mxgraph.aws4.resourceIcon;resIcon=mxgraph.aws4.lambda;" parent="1" vertex="1">
          <mxGeometry x="800" y="400" width="78" height="78" as="geometry" />
        </mxCell>
        <mxCell id="tC0NQ2HxVrwb5MHLZs-I-28" style="edgeStyle=orthogonalEdgeStyle;rounded=0;jumpStyle=arc;orthogonalLoop=1;jettySize=auto;html=1;sourcePerimeterSpacing=16;endArrow=open;endFill=0;targetPerimeterSpacing=16;strokeColor=#d79b00;strokeWidth=2;fillColor=#ffe6cc;" parent="1" source="tC0NQ2HxVrwb5MHLZs-I-5" target="tC0NQ2HxVrwb5MHLZs-I-4" edge="1">
          <mxGeometry relative="1" as="geometry" />
        </mxCell>
        <mxCell id="tC0NQ2HxVrwb5MHLZs-I-5" value="API Gateway" style="points=[[0,0,0],[0.25,0,0],[0.5,0,0],[0.75,0,0],[1,0,0],[0,1,0],[0.25,1,0],[0.5,1,0],[0.75,1,0],[1,1,0],[0,0.25,0],[0,0.5,0],[0,0.75,0],[1,0.25,0],[1,0.5,0],[1,0.75,0]];outlineConnect=0;fontColor=#232F3E;gradientColor=#F54749;gradientDirection=north;fillColor=#C7131F;strokeColor=#ffffff;dashed=0;verticalLabelPosition=bottom;verticalAlign=top;align=center;html=1;fontSize=12;fontStyle=1;aspect=fixed;shape=mxgraph.aws4.resourceIcon;resIcon=mxgraph.aws4.api_gateway;" parent="1" vertex="1">
          <mxGeometry x="620" y="400" width="78" height="78" as="geometry" />
        </mxCell>
        <mxCell id="tC0NQ2HxVrwb5MHLZs-I-16" value="&amp;lt;&amp;lt;calls&amp;gt;&amp;gt;&lt;br&gt;WebHook" style="edgeStyle=orthogonalEdgeStyle;rounded=0;orthogonalLoop=1;jettySize=auto;html=1;entryX=0;entryY=0.75;entryDx=0;entryDy=0;entryPerimeter=0;fillColor=#dae8fc;endArrow=open;endFill=0;strokeWidth=2;targetPerimeterSpacing=16;sourcePerimeterSpacing=16;jumpStyle=arc;" parent="1" source="tC0NQ2HxVrwb5MHLZs-I-6" target="tC0NQ2HxVrwb5MHLZs-I-3" edge="1">
          <mxGeometry relative="1" as="geometry">
            <Array as="points">
              <mxPoint x="553" y="290" />
            </Array>
          </mxGeometry>
        </mxCell>
        <mxCell id="tC0NQ2HxVrwb5MHLZs-I-6" value="Github" style="dashed=0;outlineConnect=0;html=1;align=center;labelPosition=center;verticalLabelPosition=bottom;verticalAlign=top;shape=mxgraph.weblogos.github" parent="1" vertex="1">
          <mxGeometry x="515" y="650" width="75" height="75" as="geometry" />
        </mxCell>
        <mxCell id="tC0NQ2HxVrwb5MHLZs-I-29" value="&amp;lt;&amp;lt;calls&amp;gt;&amp;gt;&lt;br&gt;WebHook" style="edgeStyle=orthogonalEdgeStyle;rounded=0;jumpStyle=arc;orthogonalLoop=1;jettySize=auto;html=1;sourcePerimeterSpacing=16;endArrow=open;endFill=0;targetPerimeterSpacing=16;strokeColor=#9673a6;strokeWidth=2;fillColor=#e1d5e7;" parent="1" source="tC0NQ2HxVrwb5MHLZs-I-8" target="tC0NQ2HxVrwb5MHLZs-I-12" edge="1">
          <mxGeometry relative="1" as="geometry" />
        </mxCell>
        <mxCell id="tC0NQ2HxVrwb5MHLZs-I-8" value="" style="shape=image;verticalLabelPosition=bottom;labelBackgroundColor=#ffffff;verticalAlign=top;aspect=fixed;imageAspect=0;image=data:image/jpeg,iVBORw0KGgoAAAANSUhEUgAAAggAAAEsCAYAAACmKUveAAAACXBIWXMAAAsTAAALEwEAmpwYAAA59GlUWHRYTUw6Y29tLmFkb2JlLnhtcAAAAAAAPD94cGFja2V0IGJlZ2luPSLvu78iIGlkPSJXNU0wTXBDZWhpSHpyZVN6TlRjemtjOWQiPz4KPHg6eG1wbWV0YSB4bWxuczp4PSJhZG9iZTpuczptZXRhLyIgeDp4bXB0az0iQWRvYmUgWE1QIENvcmUgNS42LWMxMzggNzkuMTU5ODI0LCAyMDE2LzA5LzE0LTAxOjA5OjAxICAgICAgICAiPgogICA8cmRmOlJERiB4bWxuczpyZGY9Imh0dHA6Ly93d3cudzMub3JnLzE5OTkvMDIvMjItcmRmLXN5bnRheC1ucyMiPgogICAgICA8cmRmOkRlc2NyaXB0aW9uIHJkZjphYm91dD0iIgogICAgICAgICAgICB4bWxuczp4bXA9Imh0dHA6Ly9ucy5hZG9iZS5jb20veGFwLzEuMC8iCiAgICAgICAgICAgIHhtbG5zOnhtcE1NPSJodHRwOi8vbnMuYWRvYmUuY29tL3hhcC8xLjAvbW0vIgogICAgICAgICAgICB4bWxuczpzdEV2dD0iaHR0cDovL25zLmFkb2JlLmNvbS94YXAvMS4wL3NUeXBlL1Jlc291cmNlRXZlbnQjIgogICAgICAgICAgICB4bWxuczpkYz0iaHR0cDovL3B1cmwub3JnL2RjL2VsZW1lbnRzLzEuMS8iCiAgICAgICAgICAgIHhtbG5zOnBob3Rvc2hvcD0iaHR0cDovL25zLmFkb2JlLmNvbS9waG90b3Nob3AvMS4wLyIKICAgICAgICAgICAgeG1sbnM6dGlmZj0iaHR0cDovL25zLmFkb2JlLmNvbS90aWZmLzEuMC8iCiAgICAgICAgICAgIHhtbG5zOmV4aWY9Imh0dHA6Ly9ucy5hZG9iZS5jb20vZXhpZi8xLjAvIj4KICAgICAgICAgPHhtcDpDcmVhdG9yVG9vbD5BZG9iZSBQaG90b3Nob3AgQ0MgMjAxNyAoTWFjaW50b3NoKTwveG1wOkNyZWF0b3JUb29sPgogICAgICAgICA8eG1wOkNyZWF0ZURhdGU+MjAxNy0xMC0yNlQxNjozNToxMiswMjowMDwveG1wOkNyZWF0ZURhdGU+CiAgICAgICAgIDx4bXA6TWV0YWRhdGFEYXRlPjIwMTctMTAtMjZUMTY6MzU6MTIrMDI6MDA8L3htcDpNZXRhZGF0YURhdGU+CiAgICAgICAgIDx4bXA6TW9kaWZ5RGF0ZT4yMDE3LTEwLTI2VDE2OjM1OjEyKzAyOjAwPC94bXA6TW9kaWZ5RGF0ZT4KICAgICAgICAgPHhtcE1NOkluc3RhbmNlSUQ+eG1wLmlpZDo1MjRiOTNjYy00MzRiLTRjMmItOGZmNS0yNmRkMzYwNWQ0Mjc8L3htcE1NOkluc3RhbmNlSUQ+CiAgICAgICAgIDx4bXBNTTpEb2N1bWVudElEPmFkb2JlOmRvY2lkOnBob3Rvc2hvcDo0Y2IxODBiMi1mYWU5LTExN2EtYTVjZC05OTBkNzE5YWRmY2Q8L3htcE1NOkRvY3VtZW50SUQ+CiAgICAgICAgIDx4bXBNTTpPcmlnaW5hbERvY3VtZW50SUQ+eG1wLmRpZDo0M2IyMzU1Yi0zNmNkLTQ1YTMtYjg5ZS1hNmQwMTIzMTQ2NDQ8L3htcE1NOk9yaWdpbmFsRG9jdW1lbnRJRD4KICAgICAgICAgPHhtcE1NOkhpc3Rvcnk+CiAgICAgICAgICAgIDxyZGY6U2VxPgogICAgICAgICAgICAgICA8cmRmOmxpIHJkZjpwYXJzZVR5cGU9IlJlc291cmNlIj4KICAgICAgICAgICAgICAgICAgPHN0RXZ0OmFjdGlvbj5jcmVhdGVkPC9zdEV2dDphY3Rpb24+CiAgICAgICAgICAgICAgICAgIDxzdEV2dDppbnN0YW5jZUlEPnhtcC5paWQ6NDNiMjM1NWItMzZjZC00NWEzLWI4OWUtYTZkMDEyMzE0NjQ0PC9zdEV2dDppbnN0YW5jZUlEPgogICAgICAgICAgICAgICAgICA8c3RFdnQ6d2hlbj4yMDE3LTEwLTI2VDE2OjM1OjEyKzAyOjAwPC9zdEV2dDp3aGVuPgogICAgICAgICAgICAgICAgICA8c3RFdnQ6c29mdHdhcmVBZ2VudD5BZG9iZSBQaG90b3Nob3AgQ0MgMjAxNyAoTWFjaW50b3NoKTwvc3RFdnQ6c29mdHdhcmVBZ2VudD4KICAgICAgICAgICAgICAgPC9yZGY6bGk+CiAgICAgICAgICAgICAgIDxyZGY6bGkgcmRmOnBhcnNlVHlwZT0iUmVzb3VyY2UiPgogICAgICAgICAgICAgICAgICA8c3RFdnQ6YWN0aW9uPnNhdmVkPC9zdEV2dDphY3Rpb24+CiAgICAgICAgICAgICAgICAgIDxzdEV2dDppbnN0YW5jZUlEPnhtcC5paWQ6NTI0YjkzY2MtNDM0Yi00YzJiLThmZjUtMjZkZDM2MDVkNDI3PC9zdEV2dDppbnN0YW5jZUlEPgogICAgICAgICAgICAgICAgICA8c3RFdnQ6d2hlbj4yMDE3LTEwLTI2VDE2OjM1OjEyKzAyOjAwPC9zdEV2dDp3aGVuPgogICAgICAgICAgICAgICAgICA8c3RFdnQ6c29mdHdhcmVBZ2VudD5BZG9iZSBQaG90b3Nob3AgQ0MgMjAxNyAoTWFjaW50b3NoKTwvc3RFdnQ6c29mdHdhcmVBZ2VudD4KICAgICAgICAgICAgICAgICAgPHN0RXZ0OmNoYW5nZWQ+Lzwvc3RFdnQ6Y2hhbmdlZD4KICAgICAgICAgICAgICAgPC9yZGY6bGk+CiAgICAgICAgICAgIDwvcmRmOlNlcT4KICAgICAgICAgPC94bXBNTTpIaXN0b3J5PgogICAgICAgICA8ZGM6Zm9ybWF0PmltYWdlL3BuZzwvZGM6Zm9ybWF0PgogICAgICAgICA8cGhvdG9zaG9wOkNvbG9yTW9kZT4zPC9waG90b3Nob3A6Q29sb3JNb2RlPgogICAgICAgICA8dGlmZjpPcmllbnRhdGlvbj4xPC90aWZmOk9yaWVudGF0aW9uPgogICAgICAgICA8dGlmZjpYUmVzb2x1dGlvbj43MjAwMDAvMTAwMDA8L3RpZmY6WFJlc29sdXRpb24+CiAgICAgICAgIDx0aWZmOllSZXNvbHV0aW9uPjcyMDAwMC8xMDAwMDwvdGlmZjpZUmVzb2x1dGlvbj4KICAgICAgICAgPHRpZmY6UmVzb2x1dGlvblVuaXQ+MjwvdGlmZjpSZXNvbHV0aW9uVW5pdD4KICAgICAgICAgPGV4aWY6Q29sb3JTcGFjZT42NTUzNTwvZXhpZjpDb2xvclNwYWNlPgogICAgICAgICA8ZXhpZjpQaXhlbFhEaW1lbnNpb24+NTIwPC9leGlmOlBpeGVsWERpbWVuc2lvbj4KICAgICAgICAgPGV4aWY6UGl4ZWxZRGltZW5zaW9uPjMwMDwvZXhpZjpQaXhlbFlEaW1lbnNpb24+CiAgICAgIDwvcmRmOkRlc2NyaXB0aW9uPgogICA8L3JkZjpSREY+CjwveDp4bXBtZXRhPgogICAgICAgICAgICAgICAgICAgICAgICAgICAgICAgICAgICAgICAgICAgICAgICAgICAgICAgICAgICAgICAgICAgICAgICAgICAgICAgICAgICAgICAgICAgICAgICAgICAgCiAgICAgICAgICAgICAgICAgICAgICAgICAgICAgICAgICAgICAgICAgICAgICAgICAgICAgICAgICAgICAgICAgICAgICAgICAgICAgICAgICAgICAgICAgICAgICAgICAgICAKICAgICAgICAgICAgICAgICAgICAgICAgICAgICAgICAgICAgICAgICAgICAgICAgICAgICAgICAgICAgICAgICAgICAgICAgICAgICAgICAgICAgICAgICAgICAgICAgICAgIAogICAgICAgICAgICAgICAgICAgICAgICAgICAgICAgICAgICAgICAgICAgICAgICAgICAgICAgICAgICAgICAgICAgICAgICAgICAgICAgICAgICAgICAgICAgICAgICAgICAgCiAgICAgICAgICAgICAgICAgICAgICAgICAgICAgICAgICAgICAgICAgICAgICAgICAgICAgICAgICAgICAgICAgICAgICAgICAgICAgICAgICAgICAgICAgICAgICAgICAgICAKICAgICAgICAgICAgICAgICAgICAgICAgICAgICAgICAgICAgICAgICAgICAgICAgICAgICAgICAgICAgICAgICAgICAgICAgICAgICAgICAgICAgICAgICAgICAgICAgICAgIAogICAgICAgICAgICAgICAgICAgICAgICAgICAgICAgICAgICAgICAgICAgICAgICAgICAgICAgICAgICAgICAgICAgICAgICAgICAgICAgICAgICAgICAgICAgICAgICAgICAgCiAgICAgICAgICAgICAgICAgICAgICAgICAgICAgICAgICAgICAgICAgICAgICAgICAgICAgICAgICAgICAgICAgICAgICAgICAgICAgICAgICAgICAgICAgICAgICAgICAgICAKICAgICAgICAgICAgICAgICAgICAgICAgICAgICAgICAgICAgICAgICAgICAgICAgICAgICAgICAgICAgICAgICAgICAgICAgICAgICAgICAgICAgICAgICAgICAgICAgICAgIAogICAgICAgICAgICAgICAgICAgICAgICAgICAgICAgICAgICAgICAgICAgICAgICAgICAgICAgICAgICAgICAgICAgICAgICAgICAgICAgICAgICAgICAgICAgICAgICAgICAgCiAgICAgICAgICAgICAgICAgICAgICAgICAgICAgICAgICAgICAgICAgICAgICAgICAgICAgICAgICAgICAgICAgICAgICAgICAgICAgICAgICAgICAgICAgICAgICAgICAgICAKICAgICAgICAgICAgICAgICAgICAgICAgICAgICAgICAgICAgICAgICAgICAgICAgICAgICAgICAgICAgICAgICAgICAgICAgICAgICAgICAgICAgICAgICAgICAgICAgICAgIAogICAgICAgICAgICAgICAgICAgICAgICAgICAgICAgICAgICAgICAgICAgICAgICAgICAgICAgICAgICAgICAgICAgICAgICAgICAgICAgICAgICAgICAgICAgICAgICAgICAgCiAgICAgICAgICAgICAgICAgICAgICAgICAgICAgICAgICAgICAgICAgICAgICAgICAgICAgICAgICAgICAgICAgICAgICAgICAgICAgICAgICAgICAgICAgICAgICAgICAgICAKICAgICAgICAgICAgICAgICAgICAgICAgICAgICAgICAgICAgICAgICAgICAgICAgICAgICAgICAgICAgICAgICAgICAgICAgICAgICAgICAgICAgICAgICAgICAgICAgICAgIAogICAgICAgICAgICAgICAgICAgICAgICAgICAgICAgICAgICAgICAgICAgICAgICAgICAgICAgICAgICAgICAgICAgICAgICAgICAgICAgICAgICAgICAgICAgICAgICAgICAgCiAgICAgICAgICAgICAgICAgICAgICAgICAgICAgICAgICAgICAgICAgICAgICAgICAgICAgICAgICAgICAgICAgICAgICAgICAgICAgICAgICAgICAgICAgICAgICAgICAgICAKICAgICAgICAgICAgICAgICAgICAgICAgICAgICAgICAgICAgICAgICAgICAgICAgICAgICAgICAgICAgICAgICAgICAgICAgICAgICAgICAgICAgICAgICAgICAgICAgICAgIAogICAgICAgICAgICAgICAgICAgICAgICAgICAgICAgICAgICAgICAgICAgICAgICAgICAgICAgICAgICAgICAgICAgICAgICAgICAgICAgICAgICAgICAgICAgICAgICAgICAgCiAgICAgICAgICAgICAgICAgICAgICAgICAgICAgICAgICAgICAgICAgICAgICAgICAgICAgICAgICAgICAgICAgICAgICAgICAgICAgICAgICAgICAgICAgICAgICAgICAgICAKICAgICAgICAgICAgICAgICAgICAgICAgICAgICAgICAgICAgICAgICAgICAgICAgICAgICAgICAgICAgICAgICAgICAgICAgICAgICAgICAgICAgICAgICAgICAgICAgICAgIAogICAgICAgICAgICAgICAgICAgICAgICAgICAgICAgICAgICAgICAgICAgICAgICAgICAgICAgICAgICAgICAgICAgICAgICAgICAgICAgICAgICAgICAgICAgICAgICAgICAgCiAgICAgICAgICAgICAgICAgICAgICAgICAgICAgICAgICAgICAgICAgICAgICAgICAgICAgICAgICAgICAgICAgICAgICAgICAgICAgICAgICAgICAgICAgICAgICAgICAgICAKICAgICAgICAgICAgICAgICAgICAgICAgICAgICAgICAgICAgICAgICAgICAgICAgICAgICAgICAgICAgICAgICAgICAgICAgICAgICAgICAgICAgICAgICAgICAgICAgICAgIAogICAgICAgICAgICAgICAgICAgICAgICAgICAgICAgICAgICAgICAgICAgICAgICAgICAgICAgICAgICAgICAgICAgICAgICAgICAgICAgICAgICAgICAgICAgICAgICAgICAgCiAgICAgICAgICAgICAgICAgICAgICAgICAgICAgICAgICAgICAgICAgICAgICAgICAgICAgICAgICAgICAgICAgICAgICAgICAgICAgICAgICAgICAgICAgICAgICAgICAgICAKICAgICAgICAgICAgICAgICAgICAgICAgICAgICAgICAgICAgICAgICAgICAgICAgICAgICAgICAgICAgICAgICAgICAgICAgICAgICAgICAgICAgICAgICAgICAgICAgICAgIAogICAgICAgICAgICAgICAgICAgICAgICAgICAgICAgICAgICAgICAgICAgICAgICAgICAgICAgICAgICAgICAgICAgICAgICAgICAgICAgICAgICAgICAgICAgICAgICAgICAgCiAgICAgICAgICAgICAgICAgICAgICAgICAgICAgICAgICAgICAgICAgICAgICAgICAgICAgICAgICAgICAgICAgICAgICAgICAgICAgICAgICAgICAgICAgICAgICAgICAgICAKICAgICAgICAgICAgICAgICAgICAgICAgICAgICAgICAgICAgICAgICAgICAgICAgICAgICAgICAgICAgICAgICAgICAgICAgICAgICAgICAgICAgICAgICAgICAgICAgICAgIAogICAgICAgICAgICAgICAgICAgICAgICAgICAgICAgICAgICAgICAgICAgICAgICAgICAgICAgICAgICAgICAgICAgICAgICAgICAgICAgICAgICAgICAgICAgICAgICAgICAgCiAgICAgICAgICAgICAgICAgICAgICAgICAgICAgICAgICAgICAgICAgICAgICAgICAgICAgICAgICAgICAgICAgICAgICAgICAgICAgICAgICAgICAgICAgICAgICAgICAgICAKICAgICAgICAgICAgICAgICAgICAgICAgICAgICAgICAgICAgICAgICAgICAgICAgICAgICAgICAgICAgICAgICAgICAgICAgICAgICAgICAgICAgICAgICAgICAgICAgICAgIAogICAgICAgICAgICAgICAgICAgICAgICAgICAgICAgICAgICAgICAgICAgICAgICAgICAgICAgICAgICAgICAgICAgICAgICAgICAgICAgICAgICAgICAgICAgICAgICAgICAgCiAgICAgICAgICAgICAgICAgICAgICAgICAgICAgICAgICAgICAgICAgICAgICAgICAgICAgICAgICAgICAgICAgICAgICAgICAgICAgICAgICAgICAgICAgICAgICAgICAgICAKICAgICAgICAgICAgICAgICAgICAgICAgICAgICAgICAgICAgICAgICAgICAgICAgICAgICAgICAgICAgICAgICAgICAgICAgICAgICAgICAgICAgICAgICAgICAgICAgICAgIAogICAgICAgICAgICAgICAgICAgICAgICAgICAgICAgICAgICAgICAgICAgICAgICAgICAgICAgICAgICAgICAgICAgICAgICAgICAgICAgICAgICAgICAgICAgICAgICAgICAgCiAgICAgICAgICAgICAgICAgICAgICAgICAgICAgICAgICAgICAgICAgICAgICAgICAgICAgICAgICAgICAgICAgICAgICAgICAgICAgICAgICAgICAgICAgICAgICAgICAgICAKICAgICAgICAgICAgICAgICAgICAgICAgICAgICAgICAgICAgICAgICAgICAgICAgICAgICAgICAgICAgICAgICAgICAgICAgICAgICAgICAgICAgICAgICAgICAgICAgICAgIAogICAgICAgICAgICAgICAgICAgICAgICAgICAgICAgICAgICAgICAgICAgICAgICAgICAgICAgICAgICAgICAgICAgICAgICAgICAgICAgICAgICAgICAgICAgICAgICAgICAgCiAgICAgICAgICAgICAgICAgICAgICAgICAgICAgICAgICAgICAgICAgICAgICAgICAgICAgICAgICAgICAgICAgICAgICAgICAgICAgICAgICAgICAgICAgICAgICAgICAgICAKICAgICAgICAgICAgICAgICAgICAgICAgICAgICAgICAgICAgICAgICAgICAgICAgICAgICAgICAgICAgICAgICAgICAgICAgICAgICAgICAgICAgICAgICAgICAgICAgICAgIAogICAgICAgICAgICAgICAgICAgICAgICAgICAgICAgICAgICAgICAgICAgICAgICAgICAgICAgICAgICAgICAgICAgICAgICAgICAgICAgICAgICAgICAgICAgICAgICAgICAgCiAgICAgICAgICAgICAgICAgICAgICAgICAgICAgICAgICAgICAgICAgICAgICAgICAgICAgICAgICAgICAgICAgICAgICAgICAgICAgICAgICAgICAgICAgICAgICAgICAgICAKICAgICAgICAgICAgICAgICAgICAgICAgICAgICAgICAgICAgICAgICAgICAgICAgICAgICAgICAgICAgICAgICAgICAgICAgICAgICAgICAgICAgICAgICAgICAgICAgICAgIAogICAgICAgICAgICAgICAgICAgICAgICAgICAgICAgICAgICAgICAgICAgICAgICAgICAgICAgICAgICAgICAgICAgICAgICAgICAgICAgICAgICAgICAgICAgICAgICAgICAgCiAgICAgICAgICAgICAgICAgICAgICAgICAgICAgICAgICAgICAgICAgICAgICAgICAgICAgICAgICAgICAgICAgICAgICAgICAgICAgICAgICAgICAgICAgICAgICAgICAgICAKICAgICAgICAgICAgICAgICAgICAgICAgICAgICAgICAgICAgICAgICAgICAgICAgICAgICAgICAgICAgICAgICAgICAgICAgICAgICAgICAgICAgICAgICAgICAgICAgICAgIAogICAgICAgICAgICAgICAgICAgICAgICAgICAgICAgICAgICAgICAgICAgICAgICAgICAgICAgICAgICAgICAgICAgICAgICAgICAgICAgICAgICAgICAgICAgICAgICAgICAgCiAgICAgICAgICAgICAgICAgICAgICAgICAgICAgICAgICAgICAgICAgICAgICAgICAgICAgICAgICAgICAgICAgICAgICAgICAgICAgICAgICAgICAgICAgICAgICAgICAgICAKICAgICAgICAgICAgICAgICAgICAgICAgICAgICAgICAgICAgICAgICAgICAgICAgICAgICAgICAgICAgICAgICAgICAgICAgICAgICAgICAgICAgICAgICAgICAgICAgICAgIAogICAgICAgICAgICAgICAgICAgICAgICAgICAgICAgICAgICAgICAgICAgICAgICAgICAgICAgICAgICAgICAgICAgICAgICAgICAgICAgICAgICAgICAgICAgICAgICAgICAgCiAgICAgICAgICAgICAgICAgICAgICAgICAgICAgICAgICAgICAgICAgICAgICAgICAgICAgICAgICAgICAgICAgICAgICAgICAgICAgICAgICAgICAgICAgICAgICAgICAgICAKICAgICAgICAgICAgICAgICAgICAgICAgICAgICAgICAgICAgICAgICAgICAgICAgICAgICAgICAgICAgICAgICAgICAgICAgICAgICAgICAgICAgICAgICAgICAgICAgICAgIAogICAgICAgICAgICAgICAgICAgICAgICAgICAgICAgICAgICAgICAgICAgICAgICAgICAgICAgICAgICAgICAgICAgICAgICAgICAgICAgICAgICAgICAgICAgICAgICAgICAgCiAgICAgICAgICAgICAgICAgICAgICAgICAgICAgICAgICAgICAgICAgICAgICAgICAgICAgICAgICAgICAgICAgICAgICAgICAgICAgICAgICAgICAgICAgICAgICAgICAgICAKICAgICAgICAgICAgICAgICAgICAgICAgICAgICAgICAgICAgICAgICAgICAgICAgICAgICAgICAgICAgICAgICAgICAgICAgICAgICAgICAgICAgICAgICAgICAgICAgICAgIAogICAgICAgICAgICAgICAgICAgICAgICAgICAgICAgICAgICAgICAgICAgICAgICAgICAgICAgICAgICAgICAgICAgICAgICAgICAgICAgICAgICAgICAgICAgICAgICAgICAgCiAgICAgICAgICAgICAgICAgICAgICAgICAgICAgICAgICAgICAgICAgICAgICAgICAgICAgICAgICAgICAgICAgICAgICAgICAgICAgICAgICAgICAgICAgICAgICAgICAgICAKICAgICAgICAgICAgICAgICAgICAgICAgICAgICAgICAgICAgICAgICAgICAgICAgICAgICAgICAgICAgICAgICAgICAgICAgICAgICAgICAgICAgICAgICAgICAgICAgICAgIAogICAgICAgICAgICAgICAgICAgICAgICAgICAgICAgICAgICAgICAgICAgICAgICAgICAgICAgICAgICAgICAgICAgICAgICAgICAgICAgICAgICAgICAgICAgICAgICAgICAgCiAgICAgICAgICAgICAgICAgICAgICAgICAgICAgICAgICAgICAgICAgICAgICAgICAgICAgICAgICAgICAgICAgICAgICAgICAgICAgICAgICAgICAgICAgICAgICAgICAgICAKICAgICAgICAgICAgICAgICAgICAgICAgICAgICAgICAgICAgICAgICAgICAgICAgICAgICAgICAgICAgICAgICAgICAgICAgICAgICAgICAgICAgICAgICAgICAgICAgICAgIAogICAgICAgICAgICAgICAgICAgICAgICAgICAgICAgICAgICAgICAgICAgICAgICAgICAgICAgICAgICAgICAgICAgICAgICAgICAgICAgICAgICAgICAgICAgICAgICAgICAgCiAgICAgICAgICAgICAgICAgICAgICAgICAgICAgICAgICAgICAgICAgICAgICAgICAgICAgICAgICAgICAgICAgICAgICAgICAgICAgICAgICAgICAgICAgICAgICAgICAgICAKICAgICAgICAgICAgICAgICAgICAgICAgICAgICAgICAgICAgICAgICAgICAgICAgICAgICAgICAgICAgICAgICAgICAgICAgICAgICAgICAgICAgICAgICAgICAgICAgICAgIAogICAgICAgICAgICAgICAgICAgICAgICAgICAgICAgICAgICAgICAgICAgICAgICAgICAgICAgICAgICAgICAgICAgICAgICAgICAgICAgICAgICAgICAgICAgICAgICAgICAgCiAgICAgICAgICAgICAgICAgICAgICAgICAgICAgICAgICAgICAgICAgICAgICAgICAgICAgICAgICAgICAgICAgICAgICAgICAgICAgICAgICAgICAgICAgICAgICAgICAgICAKICAgICAgICAgICAgICAgICAgICAgICAgICAgICAgICAgICAgICAgICAgICAgICAgICAgICAgICAgICAgICAgICAgICAgICAgICAgICAgICAgICAgICAgICAgICAgICAgICAgIAogICAgICAgICAgICAgICAgICAgICAgICAgICAgICAgICAgICAgICAgICAgICAgICAgICAgICAgICAgICAgICAgICAgICAgICAgICAgICAgICAgICAgICAgICAgICAgICAgICAgCiAgICAgICAgICAgICAgICAgICAgICAgICAgICAgICAgICAgICAgICAgICAgICAgICAgICAgICAgICAgICAgICAgICAgICAgICAgICAgICAgICAgICAgICAgICAgICAgICAgICAKICAgICAgICAgICAgICAgICAgICAgICAgICAgICAgICAgICAgICAgICAgICAgICAgICAgICAgICAgICAgICAgICAgICAgICAgICAgICAgICAgICAgICAgICAgICAgICAgICAgIAogICAgICAgICAgICAgICAgICAgICAgICAgICAgICAgICAgICAgICAgICAgICAgICAgICAgICAgICAgICAgICAgICAgICAgICAgICAgICAgICAgICAgICAgICAgICAgICAgICAgCiAgICAgICAgICAgICAgICAgICAgICAgICAgICAgICAgICAgICAgICAgICAgICAgICAgICAgICAgICAgICAgICAgICAgICAgICAgICAgICAgICAgICAgICAgICAgICAgICAgICAKICAgICAgICAgICAgICAgICAgICAgICAgICAgICAgICAgICAgICAgICAgICAgICAgICAgICAgICAgICAgICAgICAgICAgICAgICAgICAgICAgICAgICAgICAgICAgICAgICAgIAogICAgICAgICAgICAgICAgICAgICAgICAgICAgICAgICAgICAgICAgICAgICAgICAgICAgICAgICAgICAgICAgICAgICAgICAgICAgICAgICAgICAgICAgICAgICAgICAgICAgCiAgICAgICAgICAgICAgICAgICAgICAgICAgICAgICAgICAgICAgICAgICAgICAgICAgICAgICAgICAgICAgICAgICAgICAgICAgICAgICAgICAgICAgICAgICAgICAgICAgICAKICAgICAgICAgICAgICAgICAgICAgICAgICAgICAgICAgICAgICAgICAgICAgICAgICAgICAgICAgICAgICAgICAgICAgICAgICAgICAgICAgICAgICAgICAgICAgICAgICAgIAogICAgICAgICAgICAgICAgICAgICAgICAgICAgICAgICAgICAgICAgICAgICAgICAgICAgICAgICAgICAgICAgICAgICAgICAgICAgICAgICAgICAgICAgICAgICAgICAgICAgCiAgICAgICAgICAgICAgICAgICAgICAgICAgICAgICAgICAgICAgICAgICAgICAgICAgICAgICAgICAgICAgICAgICAgICAgICAgICAgICAgICAgICAgICAgICAgICAgICAgICAKICAgICAgICAgICAgICAgICAgICAgICAgICAgICAgICAgICAgICAgICAgICAgICAgICAgICAgICAgICAgICAgICAgICAgICAgICAgICAgICAgICAgICAgICAgICAgICAgICAgIAogICAgICAgICAgICAgICAgICAgICAgICAgICAgICAgICAgICAgICAgICAgICAgICAgICAgICAgICAgICAgICAgICAgICAgICAgICAgICAgICAgICAgICAgICAgICAgICAgICAgCiAgICAgICAgICAgICAgICAgICAgICAgICAgICAgICAgICAgICAgICAgICAgICAgICAgICAgICAgICAgICAgICAgICAgICAgICAgICAgICAgICAgICAgICAgICAgICAgICAgICAKICAgICAgICAgICAgICAgICAgICAgICAgICAgICAgICAgICAgICAgICAgICAgICAgICAgICAgICAgICAgICAgICAgICAgICAgICAgICAgICAgICAgICAgICAgICAgICAgICAgIAogICAgICAgICAgICAgICAgICAgICAgICAgICAgICAgICAgICAgICAgICAgICAgICAgICAgICAgICAgICAgICAgICAgICAgICAgICAgICAgICAgICAgICAgICAgICAgICAgICAgCiAgICAgICAgICAgICAgICAgICAgICAgICAgICAgICAgICAgICAgICAgICAgICAgICAgICAgICAgICAgICAgICAgICAgICAgICAgICAgICAgICAgICAgICAgICAgICAgICAgICAKICAgICAgICAgICAgICAgICAgICAgICAgICAgICAgICAgICAgICAgICAgICAgICAgICAgICAgICAgICAgICAgICAgICAgICAgICAgICAgICAgICAgICAgICAgICAgICAgICAgIAogICAgICAgICAgICAgICAgICAgICAgICAgICAgICAgICAgICAgICAgICAgICAgICAgICAgICAgICAgICAgICAgICAgICAgICAgICAgICAgICAgICAgICAgICAgICAgICAgICAgCiAgICAgICAgICAgICAgICAgICAgICAgICAgICAgICAgICAgICAgICAgICAgICAgICAgICAgICAgICAgICAgICAgICAgICAgICAgICAgICAgICAgICAgICAgICAgICAgICAgICAKICAgICAgICAgICAgICAgICAgICAgICAgICAgICAgICAgICAgICAgICAgICAgICAgICAgICAgICAgICAgICAgICAgICAgICAgICAgICAgICAgICAgICAgICAgICAgICAgICAgIAogICAgICAgICAgICAgICAgICAgICAgICAgICAgICAgICAgICAgICAgICAgICAgICAgICAgICAgICAgICAgICAgICAgICAgICAgICAgICAgICAgICAgICAgICAgICAgICAgICAgCiAgICAgICAgICAgICAgICAgICAgICAgICAgICAgICAgICAgICAgICAgICAgICAgICAgICAgICAgICAgICAgICAgICAgICAgICAgICAgICAgICAgICAgICAgICAgICAgICAgICAKICAgICAgICAgICAgICAgICAgICAgICAgICAgICAgICAgICAgICAgICAgICAgICAgICAgICAgICAgICAgICAgICAgICAgICAgICAgICAgICAgICAgICAgICAgICAgICAgICAgIAogICAgICAgICAgICAgICAgICAgICAgICAgICAgICAgICAgICAgICAgICAgICAgICAgICAgICAgICAgICAgICAgICAgICAgICAgICAgICAgICAgICAgICAgICAgICAgICAgICAgCiAgICAgICAgICAgICAgICAgICAgICAgICAgICAgICAgICAgICAgICAgICAgICAgICAgICAgICAgICAgICAgICAgICAgICAgICAgICAgICAgICAgICAgICAgICAgICAgICAgICAKICAgICAgICAgICAgICAgICAgICAgICAgICAgICAgICAgICAgICAgICAgICAgICAgICAgICAgICAgICAgICAgICAgICAgICAgICAgICAgICAgICAgICAgICAgICAgICAgICAgIAogICAgICAgICAgICAgICAgICAgICAgICAgICAgICAgICAgICAgICAgICAgICAgICAgICAgICAgICAgICAgICAgICAgICAgICAgICAgICAgICAgICAgICAgICAgICAgICAgICAgCiAgICAgICAgICAgICAgICAgICAgICAgICAgICAgICAgICAgICAgICAgICAgICAgICAgICAgICAgICAgICAgICAgICAgICAgICAgICAgICAgICAgICAgICAgICAgICAgICAgICAKICAgICAgICAgICAgICAgICAgICAgICAgICAgICAgICAgICAgICAgICAgICAgICAgICAgICAgICAgICAgICAgICAgICAgICAgICAgICAgICAgICAgICAgICAgICAgICAgICAgIAogICAgICAgICAgICAgICAgICAgICAgICAgICAgICAgICAgICAgICAgICAgICAgICAgICAgICAgICAgICAgICAgICAgICAgICAgICAgICAgICAgICAgICAgICAgICAgICAgICAgCiAgICAgICAgICAgICAgICAgICAgICAgICAgICAgICAgICAgICAgICAgICAgICAgICAgICAgICAgICAgICAgICAgICAgICAgICAgICAgICAgICAgICAgICAgICAgICAgICAgICAKICAgICAgICAgICAgICAgICAgICAgICAgICAgICAgICAgICAgICAgICAgICAgICAgICAgICAgICAgICAgICAgICAgICAgICAgICAgICAgICAgICAgICAgICAgICAgICAgICAgIAogICAgICAgICAgICAgICAgICAgICAgICAgICAgICAgICAgICAgICAgICAgICAgICAgICAgICAgICAgICAgICAgICAgICAgICAgICAgICAgICAgICAgICAgICAgICAgICAgICAgCiAgICAgICAgICAgICAgICAgICAgICAgICAgICAgICAgICAgICAgICAgICAgICAgICAgICAgICAgICAgICAgICAgICAgICAgICAgICAgICAgICAgICAgICAgICAgICAgICAgICAKICAgICAgICAgICAgICAgICAgICAgICAgICAgICAgICAgICAgICAgICAgICAgICAgICAgICAgICAgICAgICAgICAgICAgICAgICAgICAgICAgICAgICAgICAgICAgICAgICAgIAogICAgICAgICAgICAgICAgICAgICAgICAgICAgICAgICAgICAgICAgICAgICAgICAgICAgICAgICAgICAgICAgICAgICAgICAgICAgICAgICAgICAgICAgICAgICAgICAgICAgCiAgICAgICAgICAgICAgICAgICAgICAgICAgICAgICAgICAgICAgICAgICAgICAgICAgICAgICAgICAgICAgICAgICAgICAgICAgICAgICAgICAgICAgICAgICAgICAgICAgICAKICAgICAgICAgICAgICAgICAgICAgICAgICAgICAgICAgICAgICAgICAgICAgICAgICAgICAgICAgICAgICAgICAgICAgICAgICAgICAgICAgICAgICAgICAgICAgICAgICAgIAogICAgICAgICAgICAgICAgICAgICAgICAgICAgICAgICAgICAgICAgICAgICAgICAgICAgICAgICAgICAgICAgICAgICAgICAgICAgICAgICAgICAgICAgICAgICAgICAgICAgCiAgICAgICAgICAgICAgICAgICAgICAgICAgICAgICAgICAgICAgICAgICAgICAgICAgICAgICAgICAgICAgICAgICAgICAgICAgICAgICAgICAgICAgICAgICAgICAgICAgICAKICAgICAgICAgICAgICAgICAgICAgICAgICAgICAgICAgICAgICAgICAgICAgICAgICAgICAgICAgICAgICAgICAgICAgICAgICAgICAgICAgICAgICAgICAgICAgICAgICAgIAogICAgICAgICAgICAgICAgICAgICAgICAgICAgICAgICAgICAgICAgICAgICAgICAgICAgICAgICAgICAgICAgICAgICAgICAgICAgICAgICAgICAgICAgICAgICAgICAgICAgCiAgICAgICAgICAgICAgICAgICAgICAgICAgICAgICAgICAgICAgICAgICAgICAgICAgICAgICAgICAgICAgICAgICAgICAgICAgICAgICAgICAgICAgICAgICAgICAgICAgICAKICAgICAgICAgICAgICAgICAgICAgICAgICAgICAgICAgICAgICAgICAgICAgICAgICAgICAgICAgICAgICAgICAgICAgICAgICAgICAgICAgICAgICAgICAgICAgICAgICAgIAogICAgICAgICAgICAgICAgICAgICAgICAgICAgICAgICAgICAgICAgICAgICAgICAgICAgICAgICAgICAgICAgICAgICAgICAgICAgICAgICAgICAgICAgICAgICAgICAgICAgCiAgICAgICAgICAgICAgICAgICAgICAgICAgICAgICAgICAgICAgICAgICAgICAgICAgICAgICAgICAgICAgICAgICAgICAgICAgICAgICAgICAgICAgICAgICAgICAgICAgICAKICAgICAgICAgICAgICAgICAgICAgICAgICAgICAgICAgICAgICAgICAgICAgICAgICAgICAgICAgICAgICAgICAgICAgICAgICAgICAgICAgICAgICAgICAgICAgICAgICAgIAogICAgICAgICAgICAgICAgICAgICAgICAgICAgICAgICAgICAgICAgICAgICAgICAgICAgICAgICAgICAgICAgICAgICAgICAgICAgICAgICAgICAgICAgICAgICAgICAgICAgCiAgICAgICAgICAgICAgICAgICAgICAgICAgICAgICAgICAgICAgICAgICAgICAgICAgICAgICAgICAgICAgICAgICAgICAgICAgICAgICAgICAgICAgICAgICAgICAgICAgICAKICAgICAgICAgICAgICAgICAgICAgICAgICAgIAo8P3hwYWNrZXQgZW5kPSJ3Ij8+VKf1tgAAACBjSFJNAAB6JQAAgIMAAPn/AACA6QAAdTAAAOpgAAA6mAAAF2+SX8VGAAAVa0lEQVR42uzdeZRkVWEH4F8LjMM4rLI2iOgAsgwIESGagCh4FJcgGiQoEoLRjEfjkkEF9USIQRRPGyVi2i0uByGYKBIkoOKuB1CQfRsHGFmGRXZGBpgZOn/cN9I03T1dVa+qq6u+75x3Zqam6lbVfa9e/eq+uwyMjIwEAGC0p6kCAEBAAAAEBABAQAAABAQAQEAAAAQEAEBAAAAEBABAQAAABAQAQEAAAAQEAEBAAAAEBABAQAAAEBAAAAEBABAQAAABAQAQEAAAAQEAEBAAAAEBABAQAAABAQAQEAAAAQEAEBAAAAEBABAQAAAEBABAQAAABAQAQEAAAAQEAEBAAAAEBABAQAAABAQAQEAAAAQEAEBAAAAEBABAQAAABAQAAAEBABAQAAABAQAQEAAAAQEAEBAAAAEBABAQAAABAQAQEAAAAQEAEBAAAAEBAOgHa6uC/rZg4dJG7j6n2uaqOZiRliV5uNoyPDSoRhAQaMqWSQ5NckCSPZI4m0BvWJrk0gULl56f5IzhocHbVQljDYyMjKgFLQhjbZvkuCSHJ1lLLUFPW5Xk1CTHDQ8NLlEdCAiMFxAGkrw7yYlJ1lU70FeWJzk2ycnDQ4O+GNBJkT+ZleT0JJ8RDqAvrVt9/k9fsHDpLNWBgMDqcHBWSn8DoL8dmuQsIQEBgST5WpJXqgag8srqvICAQB97Z5LDVAMwxmELFi59p2roXzop9rEFC5duneTamNcAGN+yJDsNDw3eqir6jxaE/vYR4QCYxNzqPEEf0oLQpxYsXLpRkjtSOigCTOSxJFsMDw3epyr6ixaE/vUG4QCYglnV+QIBgT5xgCoAnC8QEBhrd1UAOF8gIDDWtqoAcL5AQGCsp6sCwPkCAQEAEBAAAAEBABAQAAABAQAQEAAAAQEAEBAAAAEBABAQAAABAQAQEAAAAQEAEBAAAAQEAEBAAAAEBABAQAAABAQAQEAAAAQEAEBAAAAEBABAQAAABAQAQEAAesyKJN9I8ldJtkqyTpJZSbaubjstyUrVBAIC0D9+nmSnJH+b5OwkS6swsCLJbdVtb06yc5JfqS4QEIDed1qSlyW5YQr3/V1139NVGwgIQO/6QZIjkqxq4DGPpbQ0/ET1gYAA9J6HkhzZYDhYbUUVEh5WjSAgAL1lOMntLTz+liRfUI0gIAC95Rs1lHGqagQBAegdf0xydQ3lXJbSJwHoEWurAlijkSRLklyb5JpRf17QA+9tafX+WvV4krtS5koABAToKauSLB4VAFaHgevSu53w6pzwaLlDCAQE6JVA8LFRYeB36b9m8k1rLGtLhxQICNALbkxyfJ/XwSZJtkhyR4vlbJNkrkMKeodOivSza1VBkuTgGsp4vWoEAQF6xXWqIEnynrTWmjgrybtUIwgI0Cu0IBTPS3JMC4//SJJ5qhEEBOgVWhCecHyau9RwaJIPqz4QEEBA6N1zwRlJFjTwmHelrADpPAICAvSMO5LcrxqeZJ0k/5Hk/CT7JBkY5z4DSfZNWcHx351DoHcZ5ojWA8bav9puS3JpnljIacskf5ZkUBWBgAC9SgfFNduq2oA+pHmQfqUFAUBAgKfQggAwCZcYmC4rU1b/W5HSWXDdJE9Pma5344zfQa5O19sFPeux6th6MMmc6pjapMtf86okDyR5qNrmVp+JDavPBQgI9KT7k/wsyU+TXF79er8zEy8zPJBksyTPSZmAZ9ckuyd5UZL1a3g9dya5uYZyft/AfQdTRgmstiJlqeVmbTNJiLotyZlJLk5ZpvqB6stmsyR7Jzl2nPp4pMW6mJOJF35aXn1hN+vZUwgEZyc5J8kvU9bYWDXmPusl2TllBMZrU0ZpTGc4vqj6PFyQZFG1n1ZM8FnYOsl21b7bL8lLksx2WqHdBkZGRtRCH1qwcGkndvw5Sb6U5NzUs0riWlVYeFWSg5LsNYXH3JoyJO+qUdvN01DlfxjzK/byKvQ065okO425bVGSD1Rflo9P8Lhtk9w05raXVl9WrXhdFUrGc1b1/60EsW3Guf2BJJ9K8oUkdzdY5g4ps0cemfa3Vq12ZZKvpMwd8YcWylk/yRtT5qx4QacO4OGhwYHQV/RBoB3OT/L8JK+pvhzqWkJ5VZLLkny8+jX13JQZAG+d5DEnJDkiyUlJ/m+awsGmqb+J+4ox//5SFZ7OmiQczFRXjXPbl1Nal05oIhysDlNHVV+w7e6Pcl2SN1Sfic+2GA6Scunky0lemDL7pQ63CAh0vWVJ3pzk5eN8gbXDTUmOS7kUcdQE9+mGzoi7tqHM0fX76SRvrzGIdZtrRv393pQWpLcluaeGsi+tQsKZbXjdK6sAu1uS72TiS2rNGkny3SR7VMeA5mAEBLrSTUn2TGk+7bSV1Yl+TV8u02V+G8q8svrzx0ne3+PH1lWjwt5eKZes6rQ8ySE1H7t3JPmLKsCuaHP9PJJkYcplt+VORQgIdJNF1clwOkcG7DTObXen9ebcbg0IV1RfPO9I711SGC8MXZHSOe+GNj3HqiR/l9b7YqwONHsn+XWH6+nslP4kf3RKQkCgG9yb5MA8MR1vNwWEq7ukjnZpQ5m/T/LVKpz1umtSRh+0O+w9luSwNNenYbUbkrws09PXJSmjIw7pg9CIgMAM8PaUYWXTbecuDgjz21Tuh/rkGHskZcRCJ9yR0irTjDtThiFOd6vVuen9y04ICHS5/03y7S55LTtO8Mtzum2TeuZuGM89DsG2+J+U+RQa8XiSN2XyETWd9G+p53IJAgI05bgueR1rp4xr78YWhF0cJjPShxu8/8dSOox2i5GUkR4r7EoEBDrtokw8cqDT5uXJsxR2UwvCfIfKjPTzlMmspmJxkhO78D0sTplECgQEOuq0Lnot43VQvC+tTe+rBYEvTvF+/5jk0Rqeb4Mkr0iZdXLPms7PJ6R358dAQKBL1dWcukXKvPivTungtWd1WyPG66B4VZfU024OlRnrjKx5NMBFSc5r8XkGUi7X3VGVdWaS36TM+/DiFsu+o3of0DCLNdGMR9L69f1tk3w9ZfjaeB6qnuPClIWeflTdNp7xOiguqwLHeO5PmbK5VftN4T47OlzaYjBlLYIDU6bcfjhl4aNPJrmkpue4pzr+JvuSruPSwikZf+TEDinTlr+0CiLN+nyStzhkEBDohBvT+rSup6ZMrjSR9ZL8ebW9N6WZ9MfV476bJ08GM14LwoHVNp6fTfHLfU1+4lDouLVShvB9NE9e0XDjlPH/b0jy1iRfq+n5zp0kINycMpKnFQdk8mGV66bMdzE/zc9tcFGSW5I8y+FDI1xioBmtjvNeew3hYDyzkryyCgi3JflMSufEAb/S+8YzUmYLPDETL3f8tJSFjPas6Tkn++X+zRqC8lRGS+yUcgmuWSNpz1oTaEGAp7i/xcevTOlAuFmTj98gyXuSvKv6hfcMu+RJNqq+ILev6njDlKmEH8jM7rB2VpL9p9jK8KmUpvlWTTZdcqsddbfP1FuyjqzCUbPOTfJuHw0EBGaCE1KWvm3FWilLSlPq4m9SZrb8y/Rm6+B2Ddx3v5Rr+K1ORf1AkiUpfWZGuy2td4RtpFXgpdU+XtXkc11QtSQM+KgwVS4x0IwNayjj5CRHxxCsOsxPcnHK5Zd9fa7/5E01lTPeAlE/qqHcfRu470ZJntdi0LnaIYGAQLttUVM5Q0l2TRmGZS375r9kLkyyu6p4in1qKmfxOLf9ooZyn9/g/Xdo8fmudEggINBuz8n4Mxc2Y1FK0/iOST4d6ws06vjogzGRF9Z0jhtvZcbLWyxz3ZThmY2Y1+JzXu+QQECg3Wa14RfroiQLk2yV5PA0vlhOv3JNeWLrJdm6hnLGhtaRtN5cv2UTj9m4hs8YCAi03avaVO6jKcPH9km5tv65JA+qbpq0VRsCwq0pEzO1YvMmHrNRi8+51OFAI4xioFlvSVnB7vE2PsfVKfPcH5sypPHoJM9U9TRgm5Qe/HUGhDq+aC9NuVTXiGUtPuddDgcEBDphXpKDk3y7A8+1LMknkgynzKp4dFx3Z2rWr6GMkTYEhEdShk920h8cDjTCJQZacVKSuR18vvtTFrXZKa1PcUt/qCNIPtgjX7SPOhwQEOiU56YsNNNptyQ5KMnbql9iMJE6RtuMvYy2fIbWxUMOBwQEOumIlOb/6fDllFkDNZ0ykdl+iYOAwPT5YJKvpAx/7LRLUlbbu9tuoE2/mjcY8+/lqhUBAabuqJTZ5bafhudenOS1aX6eenrXH2soY+xcE3NUKwICNGavlBnmPpj6ZlqcqgtTOk3CaHVcDhjbEXeWakVAgMatm9In4dqUKZQ7eYydmOReu4BR7qyhjE3H/HumDrE1NBgBga4wL8npKZMdva1DJ6eHkvynqmeUG2soY+ysh+vP0LrYyOFAI0yURLvtmOSLKSs3nlr9/bI2Pt8ZKRMpwarUMxnR2NVL65i+eXb12eik7R0SCAh0o/WSvKPaLql+6Z+WMvlRnS5Jcp9fSyS5KcmKGsrZZsy/B2sKCJfaRXQzlxiYDi9ImWDptiSfT7JdjWWPOPFSuaCmcnYepwVhrRbLvD8WT0JAgAnNqVoUrklycuq7trtY1ZLkBzWUMWucADsryQ41lH25XYSAAJNbJ2XVxouTPLuG8u7s0Os2zXP3ejTJOTWUM3+C1oLdayj7PLsJAQGmZvuUfgmt6tRMd5qIu9e3UvqitGrfCW7fo4ay/yv19JEAAYGu+4W2W+pfVfHFab1395omaaprJrxfOgy60qokH6+prP0muP3lNZR9V5Iv2F0ICPSaRUmuTFlV8flJvlnjr6Fntvj4ddfw/3XNhPe5lE6RdJfPJLmuhnLWmaQFYfc8dfhjMz6c5HdtqIORlCG//+1wQECg00afgK9IcnjK8K+jq+DQrMdSZmFsxZpO3OvVVAe/Sek7sXKS+9ybpy4XTPtcWH3p1uGATD5c9jU1PMeDSfZPcn1Nr/m+JJ9N8ryUmUy/75CgWeZBoFnXjHPb3SkTIg2l9PI+OMmBKZcNprI2w0iS96X16ZLnreH/N6+xHk5J6Wz210meUwWcpdUJ/5IkN6cMadvAIdOyezJ5J9bvJjky9S3HfPga/v+olCXHW3VLyjomxyVZkDW3gI21OMkPk3yv+nN0S94ihw0CAtPZgjCeRUk+WW1zk7wwyd4pY8rnJdksZbKYVSnzIVyc5GtpfQ6DtVIueUzmGdUX9gM11cUN1fukvfZOufa/f5KdkmyY0npzbUqHv5/W+Fwbplw+m8yLkuya1lrMRrck/FOS45O8rAoMO1SvY/2UVSlXViH8zpQppK9L8tskf2gwyIOAQFs1chlgWZKfVFu77ZapzacwP8mv7MYZZWWSc6ut3d6Tqa0f8v4kR9T4vA8kObPa6nBPSovcxg4fGqUPAs0YSX3XTOv2+ineb0+7kQnMTelbMhWHV60IvRLmQUCgJUvSnZMErZ3kLVO87/52IxM4JlMfSTOQ5FNd/n6ut0sREOiUbr2ueXimPhPjy6tfijDaLml8NdBXJHlrF78nLQgICHTMdV34muYm+WgD95+deq8dM/PNTlmS/OlNPPbk1DP9cjsYyYCAQF+3IJyUZNsGH/O+1DdpEjPbQJIvtvAlPyfJ2Um29nlFQKCfdds1zb9PWRWyUdtVIQE+kan3X5nI1ilDLed12XtbEms+ICDQh79IDksy3MLj/yVlfD3923JwUpIP1FTevJTZHPfqove4Mu2ZzhkBAZ7i9NSzml2rx+6HUlZ/XKuFcmalLDi1q93ad9ZL8p2UuQzqtEmSXyT5YIvHZl2fk39I8iy7GwGBTnhFygxu30sZDTDQ4effNaUp94SaytssZRKn19q1fWP/6hh+XZvKn5Vy2eLCTLwiZDsNVO/t1yktbOvZ5QgIdNKrk/wgZVTDP6f91153S/L1JJcl2afmsp9ZtSR8K8n2dm3P2q3ax+en9EFptz2r8PnD6gu73bPXbpoyZfOVKbMxvsAup1mmWqYOO6TMIX98SgfG71e/8H+dss5CK3asgsgh6UxfgUNSFl46N+VSyjkpK+Q1E753TLkWPXuc/59b0y/LDWsoY/caypjfgX3zxpQ1O25s8HEbpayrcHimb4KsA6rtjiqInlt9Ru5vsdw5KZf7XpInFkbzw49aDIyMWM6+Hy1YuLRTO/72KjQsTnJTymIzd406MS6rviyfVv362SxlVcSdq18/m0xzVY2kdMr8bcp48ltTFstZXm2zU8bNb57Si3376rXvEhMxrXZW6mnKX5IyEdatKUttX1HdtjRlZs9VKSshbpQy5HX7KqDtls5fBpuqG1NaxBZXYfr2lIWbHk1ZoGlO9dpnV5+FzVOWM9+uen87pkP9HIaHBgccyloQoE5bVtt+M/T1D1Rf9rvYlV1j62o7uAfey3OrDbqOpigAQEAAAAQEAEBAAAAEBABAQAAABAQAQEAAAAQEAEBAAAAEBABAQAAABAQAQEAAAAQEAKDPra0KgC60TZKdq21+9efWqgUEBKB/g8DOSdZTNSAgAIIAICAAfeagagNmEJ0UAQABAQAQEAAAAQEAEBAAAAEBABAQAAABAQAQEAAAAQEAEBAAAAEBABAQAAABAQAQEAAAAQEAQEAAAAQEAEBAAAAEBABAQAAABAQAQEAAAAQEAEBAAAAEBLrco6oAcL5AQGCsJaoAcL5AQGCsy1QB4HyBgMBY56sCwPkCAYGxvp3kMdUArMFj1fkCAYF+MDw0eF+Sr6oJYA2+Wp0vEBDoI/+aZJlqACawrDpPICDQT4aHBm9NcoyaACZwTHWeQECgD52S5HTVAIxx+vDQ4CmqQUCgvx2Z5DzVAFTOq84LCAj0uceSHJTkDFUBfe+MJAcNDw0a5SQgwJ9CwmFJ3ptkueqAvrO8+vwfJhyQJGurAkYZSfLZJGclOS7J4UnWUi3Q01YlOTXJccNDg0tUBwICk1mScv3x2CSHJjkgyR5JBlUN9ISlSS5NmSHxjOGhwdtVCWMNjIyMqIU+tmDh0kbuPqfa5qo5mJGWJXm42jI8JPMjIAAADdBJEQAQEAAAAQEAEBAAAAEBABAQAAABAQAQEAAAAQEAEBAAAAEBABAQAAABAQAQEAAAAQEAEBAAAAQEAEBAAAAEBABAQAAABAQAQEAAAAQEAEBAAAAEBABAQAAABAQAQEAAAAQEAEBAAAAEBAAAAQEAEBAAAAEBABAQAAABAQAQEAAAAQEAEBAAAAEBABAQAAABAQAQEAAAAQEAEBAAAAEBAEBAAAAEBABAQAAABAQAQEAAAAQEAEBAAAAEBABAQAAABAQAQEAAAAQEAKAX/f8AK7tuYvuwVsQAAAAASUVORK5CYII=;" parent="1" vertex="1">
          <mxGeometry x="869" y="630.0000000000001" width="220" height="126.92" as="geometry" />
        </mxCell>
        <mxCell id="tC0NQ2HxVrwb5MHLZs-I-24" value="&amp;lt;&amp;lt;sends&amp;gt;&amp;gt;&lt;br&gt;Billing-Confirmation" style="edgeStyle=orthogonalEdgeStyle;rounded=0;jumpStyle=arc;orthogonalLoop=1;jettySize=auto;html=1;sourcePerimeterSpacing=16;endArrow=open;endFill=0;targetPerimeterSpacing=16;strokeColor=#d79b00;strokeWidth=2;fillColor=#ffe6cc;" parent="1" source="tC0NQ2HxVrwb5MHLZs-I-12" target="tC0NQ2HxVrwb5MHLZs-I-22" edge="1">
          <mxGeometry relative="1" as="geometry" />
        </mxCell>
        <mxCell id="tC0NQ2HxVrwb5MHLZs-I-12" value="stripeHook" style="points=[[0,0,0],[0.25,0,0],[0.5,0,0],[0.75,0,0],[1,0,0],[0,1,0],[0.25,1,0],[0.5,1,0],[0.75,1,0],[1,1,0],[0,0.25,0],[0,0.5,0],[0,0.75,0],[1,0.25,0],[1,0.5,0],[1,0.75,0]];outlineConnect=0;fontColor=#232F3E;gradientColor=#F78E04;gradientDirection=north;fillColor=#D05C17;strokeColor=#ffffff;dashed=0;verticalLabelPosition=bottom;verticalAlign=top;align=center;html=1;fontSize=12;fontStyle=1;aspect=fixed;shape=mxgraph.aws4.resourceIcon;resIcon=mxgraph.aws4.lambda;" parent="1" vertex="1">
          <mxGeometry x="940" y="400" width="78" height="78" as="geometry" />
        </mxCell>
        <mxCell id="tC0NQ2HxVrwb5MHLZs-I-15" value="&amp;lt;&amp;lt;push&amp;gt;&amp;gt;&lt;br&gt;Code" style="edgeStyle=orthogonalEdgeStyle;rounded=0;orthogonalLoop=1;jettySize=auto;html=1;strokeWidth=2;endArrow=open;endFill=0;targetPerimeterSpacing=16;sourcePerimeterSpacing=16;" parent="1" source="tC0NQ2HxVrwb5MHLZs-I-14" target="tC0NQ2HxVrwb5MHLZs-I-6" edge="1">
          <mxGeometry relative="1" as="geometry" />
        </mxCell>
        <mxCell id="tC0NQ2HxVrwb5MHLZs-I-14" value="developer" style="outlineConnect=0;gradientColor=none;fontColor=#545B64;strokeColor=none;fillColor=#879196;dashed=0;verticalLabelPosition=bottom;verticalAlign=top;align=center;html=1;fontSize=12;fontStyle=0;aspect=fixed;shape=mxgraph.aws4.illustration_users;pointerEvents=1" parent="1" vertex="1">
          <mxGeometry x="270" y="647.5" width="80" height="80" as="geometry" />
        </mxCell>
        <mxCell id="tC0NQ2HxVrwb5MHLZs-I-26" value="&amp;lt;&amp;lt;sends&amp;gt;&amp;gt;&lt;br&gt;Billing-Confirmation" style="edgeStyle=orthogonalEdgeStyle;rounded=0;jumpStyle=arc;orthogonalLoop=1;jettySize=auto;html=1;sourcePerimeterSpacing=16;endArrow=open;endFill=0;targetPerimeterSpacing=16;strokeColor=#d79b00;strokeWidth=2;fillColor=#ffe6cc;" parent="1" source="tC0NQ2HxVrwb5MHLZs-I-22" target="tC0NQ2HxVrwb5MHLZs-I-1" edge="1">
          <mxGeometry relative="1" as="geometry">
            <Array as="points">
              <mxPoint x="979" y="110" />
              <mxPoint x="320" y="110" />
            </Array>
          </mxGeometry>
        </mxCell>
        <mxCell id="tC0NQ2HxVrwb5MHLZs-I-22" value="SES" style="points=[[0,0,0],[0.25,0,0],[0.5,0,0],[0.75,0,0],[1,0,0],[0,1,0],[0.25,1,0],[0.5,1,0],[0.75,1,0],[1,1,0],[0,0.25,0],[0,0.5,0],[0,0.75,0],[1,0.25,0],[1,0.5,0],[1,0.75,0]];outlineConnect=0;fontColor=#232F3E;gradientColor=#4D72F3;gradientDirection=north;fillColor=#3334B9;strokeColor=#ffffff;dashed=0;verticalLabelPosition=bottom;verticalAlign=top;align=center;html=1;fontSize=12;fontStyle=1;aspect=fixed;shape=mxgraph.aws4.resourceIcon;resIcon=mxgraph.aws4.simple_email_service;" parent="1" vertex="1">
          <mxGeometry x="940" y="240" width="78" height="78" as="geometry" />
        </mxCell>
        <mxCell id="4MI_4Ikp9sUxNsY5L3-h-1" value="" style="outlineConnect=0;dashed=0;verticalLabelPosition=bottom;verticalAlign=top;align=center;html=1;shape=mxgraph.aws3.codebuild;fillColor=#759C3E;gradientColor=none;" vertex="1" parent="1">
          <mxGeometry x="820" y="223.5" width="76.5" height="93" as="geometry" />
        </mxCell>
      </root>
    </mxGraphModel>
  </diagram>
</mxfile>
